<svg width="96" height="96" viewBox="0 0 96 96" fill="none" xmlns="http://www.w3.org/2000/svg" role="img" aria-label="Morphiqo file conversion logo">
  <path d="M21 18.5C21 15.4624 23.4624 13 26.5 13H49L68 32V76.5C68 79.5376 65.5376 82 62.5 82H26.5C23.4624 82 21 79.5376 21 76.5V18.5Z" fill="url(#fileGradient)" stroke="#CCFBF1" stroke-width="4"/>
  <path d="M49 13V27.5C49 30.5376 51.4624 33 54.5 33H68" stroke="#CCFBF1" stroke-width="4" stroke-linejoin="round"/>
  <path d="M33 51H48" stroke="#ECFDF5" stroke-opacity="0.82" stroke-width="4.5" stroke-linecap="round"/>
  <path d="M33 64H55" stroke="#ECFDF5" stroke-width="4.5" stroke-linecap="round"/>
  <path d="M58 55H84M84 55L74 45M84 55L74 65" stroke="#F7FFFD" stroke-width="5.5" stroke-linecap="round" stroke-linejoin="round"/>
  <path d="M58 55H69" stroke="#064E47" stroke-opacity="0.28" stroke-width="9" stroke-linecap="round"/>
  <defs>
    <linearGradient id="fileGradient" x1="25" y1="15" x2="72" y2="82" gradientUnits="userSpaceOnUse">
      <stop stop-color="#0F766E"/>
      <stop offset="0.58" stop-color="#14B8A6"/>
      <stop offset="1" stop-color="#34D399"/>
    </linearGradient>
  </defs>
</svg>
